PathFileType	4	(X/Y/Z)	./resultDataOpenSim/trcMotMarkerGrf/sub09/qtm-03-02.trc
DataRate	CameraRate	NumFrames	NumMarkers	Units	OrigDataRate	OrigDataStartFrame	OrigNumFrames
250.000000	250.000000	5	24	m	250.000000	125	496
Frame#	Time	L.Toe.Tip			R.Toe.Tip			L.Ankle.Lat			R.Ankle.Lat			L.Ankle.Med			R.Ankle.Med			L.Heel			R.Heel			L.Knee.Lat			R.Knee.Lat			L.Knee.Med			R.Knee.Med			L.Thigh.Upper			R.Thigh.Upper			L.ASIS			R.ASIS			V.Sacral			L.Acromium			R.Acromium			C7			L.Elbow			R.Elbow			L.Wrist.Lat			R.Wrist.Lat
		X1	Y1	Z1	X2	Y2	Z2	X3	Y3	Z3	X4	Y4	Z4	X5	Y5	Z5	X6	Y6	Z6	X7	Y7	Z7	X8	Y8	Z8	X9	Y9	Z9	X10	Y10	Z10	X11	Y11	Z11	X12	Y12	Z12	X13	Y13	Z13	X14	Y14	Z14	X15	Y15	Z15	X16	Y16	Z16	X17	Y17	Z17	X18	Y18	Z18	X19	Y19	Z19	X20	Y20	Z20	X21	Y21	Z21	X22	Y22	Z22	X23	Y23	Z23	X24	Y24	Z24

125	0.496	-0.28895623	0.078920769	-0.012928512	-0.67427132	0.039329997	0.083728762	-0.43690237	0.10328218	-0.055228707	-0.82162653	0.055865773	0.10719221	-0.41766692	0.12096822	0.040027139	-0.8056707	0.09480227	0.018267692	-0.50319429	0.057720869	-0.011498893	-0.88799636	0.036120754	0.052581286	-0.4221937	0.52209924	-0.081097885	-0.68915614	0.49446733	0.18159828	-0.42784714	0.51590956	0.044497009	-0.69916685	0.48717115	0.053405608	-0.61871485	0.89262769	-0.12821677	-0.66885139	0.90045402	0.24404062	-0.55350196	0.97705513	-0.06199812	-0.56032636	0.98028234	0.17780048	-0.725662	1.0343673	0.055656464	-0.56029656	1.4328461	-0.1138804	-0.57554084	1.4394583	0.21464685	-0.63254271	1.4869255	0.050376775	-0.70901157	1.0965816	-0.15693572	-0.68321488	1.0793445	0.30769317	-0.60271142	0.86021112	-0.20423356	-0.44728591	0.93352266	0.26341611
126	0.5	-0.2708155	0.080534634	-0.011377264	-0.67423821	0.039288027	0.08379746	-0.41930628	0.10148649	-0.054361778	-0.82188871	0.056163479	0.10732217	-0.4009303	0.12007894	0.041159333	-0.80554725	0.094697936	0.018044572	-0.48476809	0.05470433	-0.010390608	-0.88797218	0.036261227	0.052330691	-0.41568466	0.5206121	-0.081250691	-0.68687146	0.49392296	0.18165195	-0.42155695	0.5144357	0.0441611	-0.69701978	0.48672373	0.053573494	-0.61222964	0.89123148	-0.12814275	-0.6636551	0.89963906	0.24417085	-0.54711592	0.97569558	-0.061758292	-0.55441561	0.97921508	0.17804476	-0.7183797	1.0326736	0.05447562	-0.55442903	1.431706	-0.11375428	-0.5698038	1.4383206	0.21478905	-0.62671229	1.4857228	0.050504333	-0.70419573	1.0960489	-0.15690794	-0.67702109	1.0780239	0.30798782	-0.59935763	0.85922365	-0.20492382	-0.44012475	0.93358557	0.2631174
127	0.504	-0.25292537	0.08235213	-0.0096810222	-0.67417747	0.039255285	0.083895006	-0.40179758	0.099894605	-0.053424543	-0.82191273	0.056497675	0.10734015	-0.38435859	0.11938269	0.042347618	-0.80534356	0.094617254	0.017776294	-0.46649228	0.051919756	-0.00919497	-0.88793802	0.036411211	0.052032038	-0.40925541	0.51902011	-0.081466995	-0.68434946	0.49337871	0.18172002	-0.41537675	0.51281995	0.043784264	-0.69477462	0.486242	0.053682617	-0.60573367	0.88975423	-0.12800994	-0.65843107	0.89875297	0.24429781	-0.54072916	0.97425864	-0.061505106	-0.5484616	0.97811111	0.17829321	-0.7106006	1.0305637	0.0516239	-0.54851115	1.4304897	-0.11362704	-0.56406977	1.4371058	0.21492174	-0.62087521	1.4844463	0.0506252	-0.69936525	1.0954469	-0.15696216	-0.6708202	1.0766237	0.30825736	-0.59600499	0.85817478	-0.20564891	-0.43306542	0.93352277	0.26282629
128	0.508	-0.23532261	0.084367953	-0.0078586206	-0.6741037	0.039234012	0.08399778	-0.38442449	0.09851559	-0.052419757	-0.82185328	0.056795706	0.10728702	-0.36790556	0.11884156	0.043527153	-0.80507371	0.09456043	0.017482525	-0.44832653	0.0493289	-0.0081033411	-0.88789683	0.036568944	0.051691735	-0.40290656	0.51731163	-0.081730415	-0.68159229	0.49285023	0.18181046	-0.40925013	0.51106922	0.043447145	-0.69234907	0.48570955	0.05373229	-0.59939782	0.88818019	-0.12783268	-0.65317827	0.89780259	0.24441877	-0.53433651	0.97273854	-0.061239925	-0.54249717	0.97695937	0.17855124	-0.70273682	1.028342	0.048513474	-0.54258855	1.4291957	-0.11350432	-0.55834004	1.4358271	0.21505454	-0.61502691	1.4830922	0.050739612	-0.69452404	1.0947701	-0.15706982	-0.66461649	1.0751421	0.30850332	-0.59258201	0.85708117	-0.2063708	-0.42614246	0.93331319	0.26253285
129	0.512	-0.21803869	0.086569752	-0.0059717789	-0.6740385	0.039208354	0.084055856	-0.36725182	0.097356194	-0.05137486	-0.82181129	0.057012517	0.10716751	-0.3515471	0.11844284	0.044652972	-0.80477756	0.09451795	0.017189624	-0.43025641	0.046893523	-0.0071709162	-0.88784742	0.036745158	0.051325903	-0.39659237	0.51547971	-0.082014597	-0.67871018	0.49233393	0.18193797	-0.40309277	0.50917475	0.043236364	-0.68977486	0.48513111	0.053715844	-0.59328187	0.88649821	-0.12764129	-0.64790309	0.89679959	0.24453459	-0.52792984	0.97114143	-0.060963561	-0.53652806	0.97575292	0.17882333	-0.69544589	1.0263078	0.046636266	-0.53668698	1.4278329	-0.1133921	-0.55260326	1.4344853	0.21519578	-0.60916497	1.4816598	0.050848394	-0.68966081	1.0940134	-0.15720641	-0.65841595	1.0735819	0.30872829	-0.58907193	0.85593415	-0.2070745	-0.41931105	0.93297037	0.26224
